<svg xmlns="http://www.w3.org/2000/svg" viewBox="0 0 658.85 213.51" xmlns:v="https://vecta.io/nano"><path d="M81.23 51a81.23 81.23 0 1 0 81.23 81.23A81.23 81.23 0 0 0 81.23 51zm0 142.77a61.54 61.54 0 1 1 61.54-61.54 61.61 61.61 0 0 1-61.54 61.52z" fill="#f0f1f2"/><path d="M71.38 144.07a14.72 14.72 0 0 0 19.7 0v-23.6a14.75 14.75 0 0 0-19.7 0zm9.85-53.63a41.72 41.72 0 0 0-29.56 12.26l13.9 13.92a22.14 22.14 0 0 1 31.31 0l13.92-13.92a41.7 41.7 0 0 0-29.58-12.26zm15.67 57.5a22.13 22.13 0 0 1-31.31 0l-13.9 13.93a41.8 41.8 0 0 0 59.14 0zM81.23 51.05a81.26 81.26 0 0 0-63.6 30.7l-.77 1Q15.26 84.8 13.8 87a81.25 81.25 0 0 0 67.4 126.53 20.87 20.87 0 0 0-14.39-21.44h-.08a61.62 61.62 0 0 1-46-49.94h40.8a21.26 21.26 0 0 1 0-19.7H20.7a61.28 61.28 0 0 1 60.54-51.71 61.48 61.48 0 0 1 31.88 8.91h0a19.64 19.64 0 0 0 25.6-4.77 81 81 0 0 0-57.48-23.83z" fill="#ffbb17"/><path d="M22.13 51.28s2-20.74 8-27.1S38 17.53 58.6 13.6s16.5-4.24 23.15-7.1 21.2-13 36.78 0 29.2 56.3 37.7 66.06l-12.67 10.83s-12-11.6-24.57-19.8-24.5-15.92-28.45-15.17-30.42 3.48-30.42 3.48l-24.07-.45z" fill="#cb322b"/><path d="M41.5 22.83C36 28.57 33.35 44.1 32.36 51.4l-10.23-.1s2-20.74 8-27.1S38 17.54 57.67 13.77c-8.67 2.1-11.3 3.93-16.17 9.06z" fill="#b62d27"/><path d="M11.27 68.8a43.76 43.76 0 0 0 2.24-7.44c.4-2.6.76-5.18 2.33-7.26C21 47.25 32.27 44.66 40.42 43c11.7-2.4 23.76-3 35.67-3a168.89 168.89 0 0 1 32.14 2.78c8.9 1.73 22.28 3.65 28.12 11.4 1.56 2.08 1.93 4.67 2.33 7.26a42.87 42.87 0 0 0 2.24 7.44c1.2 3.62 4.6 17-5.32 19.3 0 0 4.1-7-9.2-10.45s-22.6-6.43-50.3-6.43-37 3-50.3 6.43" fill="#fff"/><path d="M131.38 79.47a25.16 25.16 0 0 0-5-1.82C115.9 74.9 107.9 72.5 91.46 71.6c-4.44-.25-9.5-.38-15.4-.38h-2.6c-25.7.18-34.83 3-47.7 6.42-4.3 1.12-6.77 2.6-8.15 4.1a6.59 6.59 0 0 0-.77 1Q15.26 84.8 13.8 87c-6.4-4-3.6-15-2.52-18.17a42.85 42.85 0 0 0 2.23-7.44c.4-2.6.77-5.18 2.34-7.26 3.37-4.47 9.33-7.12 15.33-8.9a22.26 22.26 0 0 0-5.48 5.4c-.2.4-2.12 4.68 0 6.72 1.77 1.7 15.58-3.92 36.8-4.1a119.28 119.28 0 0 1 18.77 1.29s-15.3.3-30 2.22C41 58.08 31.06 60.2 26.8 63.55c-1.5 1.36-4.45 4.84.6 7.9l.13.08c6.56 3.87 53-24.1 103.85 7.94zM125.9 60.2a4.87 4.87 0 0 0 2.21-.23 2.91 2.91 0 0 0 2.08-2.91c0-2.68-3-4.87-3.88-5.44-8.34-5.44-23.25-9.63-24.55-10a158.64 158.64 0 0 1 6.47 1.08c9.4 1.83 23.88 3.88 29.07 12.84a10.21 10.21 0 0 1 1.22 4.4c.25 3.42 1.4 5.88 2.4 8.86a32.78 32.78 0 0 1 1.2 5h0c-2.1-4.2-7.1-7.2-12-9.2a120.71 120.71 0 0 0-17.93-4.72 77.45 77.45 0 0 1 13.71.33z" fill="#d2e6e9"/><path d="M62.53 12.82c16.13-3.22 13-3.67 19.23-6.34 6.66-2.88 21.2-13 36.78 0s29.2 56.3 37.7 66.06l-12.67 10.83s-12-11.6-24.57-19.8c-9.12-6-17.9-11.65-23.55-14h-.06c-18.78-10-46.3-19.36-46.3-19.36z" fill="#cb322b"/><path d="M83.2 5.8c1.44 2.17 10.08 7 20 15.5 5.43 4.65 10.5 11.5-8.47 1.62S61.53 13 61.53 13h0c17.26-3.4 13.9-3.8 20.23-6.54.45-.17.93-.4 1.44-.65zM61.34 34.6c6.15 1.5 13.87 3 24.82 7.6l33.5 14.16a115.81 115.81 0 0 0 13.73 5.59c3.4 1 8.13 2.42 11.44.4 4.33-2.64-4.53 9.34-7.47 15.4l-1.88-1.62-1.93-1.63-.1-.07a176.01 176.01 0 0 0-4.39-3.56l-.12-.1-2.45-1.9-2.23-1.65L124 67l-2.3-1.64-.2-.14-2.53-1.7-2.75-1.8L115 61l-1-.66-3-1.9-.54-.35-1.35-.85-.33-.2-4.36-2.68h-.06a77.84 77.84 0 0 0-9-4.76h-.06c-10.68-5.82-24.3-11.33-33.97-15zm-11.87-4.3l-.4-.14h.22z" fill="#b62d27"/><circle cx="151.22" cy="80.97" r="16.96" fill="#fff"/><path d="M143.84,65.72a16.94,16.94,0,0,0,21.25,25,17,17,0,1,1-21.25-25Z" fill="#d2e6e9"/><path d="M49.07 30.15a72.9 72.9 0 0 1 10.77 3.32c-1.27-1.74-2.52-2.7-1-2.27s5.94 3.4 8.63 5.34l7.74 3.4c-4.23 0-8.48.1-12.72.33-3.54-2.1-6.9-3.93-9.37-5.33-7.23-4.08-17.52-7.4-4.05-4.78z" fill="#a02924"/><path d="M91.66 143.2a5.31 5.31 0 0 1 2.1.86 33.6 33.6 0 0 1 3.33 2.07 11.29 11.29 0 0 0 2.89 1.54 3.1 3.1 0 0 1 1.93 1.53 14 14 0 0 1 .8 1.29c0 .07 0 .12-.06.16s-.26 0-.4 0a2.61 2.61 0 0 0-.57-.08c-.23 0-.45-.08-.68-.07a6.63 6.63 0 0 0-2.76.5c-.1 0-.2.05-.24.13-.22.38-.6.4-1 .43h-.2a2.17 2.17 0 0 1-2-.53c-.3-.2-.6-.48-1-.32h-.44a1 1 0 0 1-.46.06c-.64-.12-1.3.1-1.93 0a1.3 1.3 0 0 1-.87-.08.47.47 0 0 0-.4 0 20.1 20.1 0 0 1-2.68.38 6.07 6.07 0 0 1-1.42.18c-.2 0-.36.15-.54.22a3.61 3.61 0 0 1-1.81.33 13.53 13.53 0 0 0-3 .26c-.6-.08-1.2 0-1.8-.12a2.16 2.16 0 0 0-.8.07 11.82 11.82 0 0 0-3.25-.27 7.19 7.19 0 0 0-2.22.06c-.26.07-.53-.05-.8 0h-1.62a4.43 4.43 0 0 0-2.52.65c-.23 0-.46-.05-.7-.06a.37.37 0 0 1-.22-.14 2.27 2.27 0 0 0-1-1.2 24.21 24.21 0 0 1-2.15-1.42c0-.15.14-.17.18-.28a6.62 6.62 0 0 1 3.34-1.77 5.13 5.13 0 0 1 1.41 0 9.28 9.28 0 0 0 3.24.12 10.87 10.87 0 0 0 1.35-.22 8.28 8.28 0 0 1 1.77-.35c.15 0 .28-.14.42-.22a1.25 1.25 0 0 1 1-.18 1.07 1.07 0 0 1 .47.1l1.73.56a5.9 5.9 0 0 0 2.89.18 1.08 1.08 0 0 1 .64 0 8.61 8.61 0 0 0 2.09.18 6.28 6.28 0 0 0 1.45-.36c.12 0 .22-.1.34-.1a2.19 2.19 0 0 1 .84.08 1.25 1.25 0 0 0 .83-.07 2.83 2.83 0 0 0 1.47-.67h.07a.5.5 0 0 1 .24-.06.82.82 0 0 0 .49 0 1.17 1.17 0 0 0 .83-.37c.1-.06.15-.16.25-.2.6-.2.65-.7.8-1.15s-.06-1 .18-1.4c-.01-.13-.02-.27.16-.24z" fill="#fdfdfd"/><path d="M87.25 155.84a10.84 10.84 0 0 0-1.14 0c-.07-.1-.15-.1-.28-.1-.57.1-.87 0-1-.53a1.8 1.8 0 0 0-.74-1 .37.37 0 0 1-.11-.52 1.19 1.19 0 0 1 .85-.7l1.2-.26a5.72 5.72 0 0 0 1.15-.23c-.42 0-.82-.16-1.24-.2s-.34-.15-.12-.43a4.68 4.68 0 0 1 .83-.16 5.76 5.76 0 0 1 1.1 0 1 1 0 0 0 .46-.12c.27-.1.52-.1.67.17a1.54 1.54 0 0 0 1.22.69 2.7 2.7 0 0 0 1.22.5.59.59 0 0 1 .56.57.65.65 0 0 0 .34.54 2.05 2.05 0 0 0 .85.8 6.73 6.73 0 0 1-1.67.3c-.4.06-.7.14-.88.55s-.35.37-.68.15-.3-.12-.34.14a1.67 1.67 0 0 1-.28.94c-.3 0-.52 0-.57-.38s-.24-.35-.5-.38-.48-.16-.5-.45c0-.1 0-.23-.1-.25s-.2.1-.22.22a.27.27 0 0 1-.07.14z" fill="#cfe3ed"/><path d="M66.82 158a2.82 2.82 0 0 1 0-.87 1.22 1.22 0 0 0-1.11-1.25 4.3 4.3 0 0 1-1.29-.33.23.23 0 0 1 .08-.39 2.85 2.85 0 0 1 .73-.4 1.22 1.22 0 0 0 .77-.7 2.86 2.86 0 0 1 .78-.91 1.05 1.05 0 0 0 .3-.43 1.22 1.22 0 0 1 1.24.15 4.39 4.39 0 0 0 1.58.73c.07 0 .16 0 .2.06.35.46.92.72 1.22 1.22a.73.73 0 0 1 .08.7.41.41 0 0 0 0 .22c0 .62-.14.86-.75 1.1a.33.33 0 0 0-.24.23.47.47 0 0 1-.49.34c-.32 0-.62.2-.95.05-.1-.05-.17 0-.2.12a2.05 2.05 0 0 0-.07.34.75.75 0 0 1 0 .16.16.16 0 0 1-.16.07 2.58 2.58 0 0 0-.13-1.17c-.07-.1-.13-.27-.27-.26s-.14.2-.17.3c-.1.42 0 .87-.17 1.28a2.51 2.51 0 0 0-.96-.38z" fill="#dce9ef"/><path d="M72.06 151.6c.32-.15.63 0 1 0l3.28.08a3.92 3.92 0 0 1 1.32.15c0 .18-.13.22-.26.2A11.63 11.63 0 0 0 75 152h-1.53a.82.82 0 0 0-.62.15 1.76 1.76 0 0 0 1.09 0 .23.23 0 0 1 .2 0 3.54 3.54 0 0 0 1.91.1 8.62 8.62 0 0 1 1.76.18.16.16 0 0 1 .15.16c0 .35.24.72-.07 1a.23.23 0 0 1-.08.09c-.15 0-.3.12-.46.07a2.43 2.43 0 0 1-.89-.08.81.81 0 0 1-.37-.15 1 1 0 0 0-1.08-.18l-.7.22a.75.75 0 0 1-.51 0c-.45-.14-.63 0-.6.44v.1a4 4 0 0 0 .12 1.71.14.14 0 0 1-.06.17 1.75 1.75 0 0 0-.71.16c-.24.1-.3-.06-.32-.22a4.8 4.8 0 0 0-.57-1.5A1.07 1.07 0 0 0 71 154l-2.26-.7a.49.49 0 0 1-.28-.82 5.13 5.13 0 0 1 1 0c.54.06.73 0 1-.46a.41.41 0 0 1 .4-.2 3.9 3.9 0 0 0 1.2-.22z" fill="#e5f0f3"/><path d="M77.78 153.67c0-.25.12-.5-.1-.74s.1-.18.13-.26a5.62 5.62 0 0 0-2.7-.2c-.36 0-.7.15-1-.12a.13.13 0 0 0-.12 0 1.54 1.54 0 0 1-1.06 0 1 1 0 0 0-.56.07.74.74 0 0 1 .73-.61 5.69 5.69 0 0 1 1.84.05.47.47 0 0 0 .44.13 5.85 5.85 0 0 1 2.28.13 1.07 1.07 0 0 0 .56.05 3.13 3.13 0 0 1 1.52 0 1.14 1.14 0 0 0 .37 0c.2 0 .38 0 .28-.3 0-.08.07-.1.14-.1l2.6-.08c.13 0 .3 0 .4.12-.2.3-.54.3-.85.33a1.13 1.13 0 0 0-.8.29c-.5.27-1.07.35-1.58.6s-.38.2-.13.53a.69.69 0 0 1 .07.62.85.85 0 0 0 .13.66 1.66 1.66 0 0 1 .33 1.43 1.13 1.13 0 0 0 0 .7 1.07 1.07 0 0 1 0 .47c-.1.2 0 .42-.07.63s-.1.18-.2.17a.21.21 0 0 1-.19-.22c0-.58-.48-1.06-.34-1.68 0-.2-.15-.33-.4-.35-.9-.4-.85-1.15-.7-1.9 0-.24 0-.3-.25-.32a1.72 1.72 0 0 1-.71-.09.24.24 0 0 1-.05 0z" fill="#e3edf1"/><path d="M74.5 158.44a1.47 1.47 0 0 1-.52-1.07 2.35 2.35 0 0 0-.22-1.22c-.3-.17-.3-.38-.1-.62a.68.68 0 0 0 .22-.37.73.73 0 0 1 .53-.73c.16-.06.18-.2.13-.36-.1-.33.06-.53.36-.63a1.23 1.23 0 0 1 1.23.13 5.24 5.24 0 0 0 .51.3c.17.1.3.27.15.4s-.16.46-.07.7a.23.23 0 0 1-.12.19c-.55.22-.6.7-.7 1.15a20.2 20.2 0 0 0-.58 2.29c-.27-.07-.52-.25-.82-.17z" fill="#eaf2f5"/><path d="M85.78 151.9c0 .07-.06.16.08.16a14.05 14.05 0 0 1 1.56.25c.13 0 .32 0 .3.17s-.2.15-.34.17a19.6 19.6 0 0 0-2.5.46.78.78 0 0 0-.47.21 1.69 1.69 0 0 0-.31.49c-.1.28.26.2.35.32a1.73 1.73 0 0 1 .5.87c0 .5.38.67 1 .55h.27c.07 0 0 .16-.07.23a12.67 12.67 0 0 1-3.19.39c0-.2.1-.22.22-.24a.35.35 0 0 0 .26-.39 6 6 0 0 0-.23-.93c-.14-.4-.3-.83.13-1.2.14-.1.12-.25 0-.37a1.12 1.12 0 0 1-.25-.35c-.16-.43-.1-.58.36-.7.18-.05.3-.23.5-.2a.59.59 0 0 1 .19 0 .93.93 0 0 0 .44 0 1.77 1.77 0 0 1 1.2 0z" fill="#d3e5ed"/><path d="M102.6 150.6l.1-.1a1.78 1.78 0 0 1 .32.75 2.13 2.13 0 0 1-.22.83.35.35 0 0 1-.32.21 23.12 23.12 0 0 1-2.5.11c-.5 0-.76.42-.5.8a.63.63 0 0 1 .1.47A1.56 1.56 0 0 0 100 155c.15.18.47.32.32.64-.33.27-.58 0-.86-.12s-.23-.36-.4-.5l-.28-.2a3.33 3.33 0 0 0-1.14-1.16 2.45 2.45 0 0 0-1-.29.78.78 0 0 1-.39-.18.17.17 0 0 1 0-.17.33.33 0 0 1 .22-.14c.4 0 .64-.33 1-.43a1.31 1.31 0 0 1 .58-.09 1.39 1.39 0 0 0 1-.19 1.18 1.18 0 0 0 .91-.67 5.12 5.12 0 0 1 .42-.65 1 1 0 0 1 1.17-.38 4.52 4.52 0 0 0 1.05.12z" fill="#e7f2f6"/><path d="M68.46 152.5c0 .5.07.7.6.76a9.46 9.46 0 0 1 2.06.54 1.2 1.2 0 0 1 .87.83 4.13 4.13 0 0 0 .5 1 .2.2 0 0 1 0 .24c-.06.13-.1.27.1.36-.44.3-.42.8-.6 1.22a1.8 1.8 0 0 0-.16.38c-.12.26-.27.33-.53.17a2.17 2.17 0 0 1-.14-.75c-.14-.16-.2 0-.2.07s0 .15 0 .2h0c-.08 0-.05.18-.16.2a9.37 9.37 0 0 1-2.3.25v-.5c0-.33.2-.4.45-.2s.26.2.42 0 .2-.12.34 0 .38.1.36-.2a.39.39 0 0 1 .32-.38c.7-.23.74-.3.7-1 0-.16.15-.25.13-.4a.8.8 0 0 0-.36-.66 6.57 6.57 0 0 1-.86-.8 3.58 3.58 0 0 0-1.09-.48 1.53 1.53 0 0 1-.62-.32c-.32-.3-.78-.25-1.2-.3h0c-.23 0-.26-.24-.45-.3s-.13-.14-.07-.25l.65.07a1.85 1.85 0 0 1 1.23.05.19.19 0 0 1 .02.17z" fill="#e0ebf0"/><path d="M99.92 152.2c.82.08 1.63-.12 2.45-.1a.24.24 0 0 0 .29-.2 1.92 1.92 0 0 1 .37-.67 1.18 1.18 0 0 1 .14.75 4.11 4.11 0 0 1-1.21 2.73c-.2.16-.37.34-.56.5a2.29 2.29 0 0 1-.52-.46 1.8 1.8 0 0 0-.74-.62.53.53 0 0 1-.31-.37 1.73 1.73 0 0 0-.18-.39.88.88 0 0 1 .27-1.19z" fill="#e2eff3"/><path d="M83.9 152a2 2 0 0 1-.26.07c-.22 0-.45.06-.47.28a.57.57 0 0 0 .29.59c.24.14.3.5.07.62-.47.28-.32.68-.2 1a2.51 2.51 0 0 1 .24.95c0 .2.33.38.1.58s-.42 0-.63.1l-.1.05a5.33 5.33 0 0 1-1 .08c0-.14 0-.27-.1-.43a.89.89 0 0 1 0-.87 1.86 1.86 0 0 1 .1-.2c.2-.42 0-.75-.53-.74a1.47 1.47 0 0 1-.47 0c-.35-.13-.44-.4-.22-.66a1.21 1.21 0 0 1 .42-.36 1.34 1.34 0 0 0 .6-.55.71.71 0 0 1 .6-.38l1.2-.1a.25.25 0 0 1 .39-.05z" fill="#d9e8ef"/><path d="M75.9 156.32c-.14-.4.1-.77.15-1.16 0-.1.15-.14.26-.1a.23.23 0 0 0 .31-.09c.18-.1.18-.1.6.13a.79.79 0 0 1-.37-1.1c.18-.3.48-.25.75.13-.1-.25.1-.34.24-.47h1c.32 0 .4.14.2.43a1.17 1.17 0 0 0 .35 1.59c.2.1.1.23.1.36h0a.46.46 0 0 0-.31.51 6 6 0 0 1 0 1.2 1.9 1.9 0 0 1-.24 1c0 .08-.08.16-.2.16a.26.26 0 0 1-.23-.19 1.57 1.57 0 0 1-.06-.53 3.53 3.53 0 0 0-.21-1.51.92.92 0 0 1 0-.61c.07-.27-.06-.37-.33-.4l-.56-.05c-.96-.07-.96-.07-1.44.7z" fill="#e7f0f4"/><path d="M62.74 154.86a2.72 2.72 0 0 1-1.11-3 3.13 3.13 0 0 1 .38-1 3.81 3.81 0 0 1 1.05.29.37.37 0 0 1 .18.14 3.47 3.47 0 0 0 .62.65.6.6 0 0 0 .49.13c.26-.07.43.13.64.17s.14.18.06.3a.44.44 0 0 1-.26.18c-1 .27-1.38 1-1.8 1.8a.87.87 0 0 1-.25.35z" fill="#c1dce7"/><path d="M81.7 152.44a.65.65 0 0 1-.51.73.51.51 0 0 0-.23.16c-.1.1-.28.2-.2.38a.38.38 0 0 0 .46.15c.46-.18.7.25 1.07.3.13 0 .07.2 0 .32a1.83 1.83 0 0 0-.37 1.08c0 .15 0 .24.2.26s.4.08.38.27-.25.07-.38.12l-.2.07a2.15 2.15 0 0 1-.8 0c-.34 0-.44.08-.4.37a2.36 2.36 0 0 1 0 .38 2.49 2.49 0 0 1-.13-.86 2.67 2.67 0 0 0-.43-1.21.83.83 0 0 1-.15-.87c.08-.17.17-.36-.2-.4s-.14-.24-.1-.37c.12-.38.5-.47.82-.55s.73-.26 1.13-.34z" fill="#ddeaef"/><path d="M96.32 153.13l.6.13a3 3 0 0 1 2 1.49.06.06 0 0 1 0 .06 1 1 0 0 1-1-.51.75.75 0 0 0-.66-.47 4.1 4.1 0 0 0-1.6 0c.33.12.52.4.86.5a.28.28 0 0 1 .19.34.24.24 0 0 1-.31.23l-1.4-.22a3.84 3.84 0 0 0-1.31 0h-.07c-.07.05-.2.05-.22 0-.2-.4-.72-.68-.62-1.23 0-.24 0-.45-.34-.5a.2.2 0 0 1-.16-.34.84.84 0 0 1 .75-.13.36.36 0 0 0 .27 0 1.1 1.1 0 0 1 .89.1 3.29 3.29 0 0 0 1.43.36c.28.01.45.2.7.2z" fill="#d7e9f1"/><path d="M77.86 153.67l-.12.35c.14 0 .24-.17.37 0a.15.15 0 0 1 0 .18c-.1.13-.24.1-.37.1s-.3 0-.4-.13-.08-.3-.27-.13-.26.2-.15.42.2.6.52.76a.2.2 0 0 1 .08.3c-.06.1-.18.1-.3.08s-.14-.12-.14-.23c0-.32-.24-.35-.5-.37-.1-.27-.4-.2-.6-.3 0-.14.12-.1.2-.1.27 0 .34-.25.47-.4s-.2-.14-.28-.25c-.3-.45-.76-.42-1.22-.4s-.53.22-.4.55 0 .44-.27.52-.48.23-.4.56-.14.3-.25.4-.3.34-.12.57a.83.83 0 0 1-.49-.09 1.72 1.72 0 0 1-.29-.84 2.4 2.4 0 0 1 0-1.07v-.08c0-.03-.34-.3-.1-.46a.88.88 0 0 1 .91-.18.38.38 0 0 0 .41 0 3.36 3.36 0 0 1 .94-.26.92.92 0 0 1 .95.26l.1.1c.4-.2.73.3 1.13.13.13 0 .27.1.4 0h.08z" fill="#e7f1f5"/><path d="M87.82 144.2a3.14 3.14 0 0 1 .66-.4.19.19 0 0 1 .1.15 1.12 1.12 0 0 0 .33.75.82.82 0 0 1-.28 1.16 4.1 4.1 0 0 0-1 1.15.22.22 0 0 1-.13.12 2.08 2.08 0 0 1-1.43.26 1.52 1.52 0 0 0-.75.16 2.15 2.15 0 0 0-1 .13 3.83 3.83 0 0 1-1.75.06 2.76 2.76 0 0 1-.64 0c-.16 0-.32-.07-.33-.27a.31.31 0 0 1 .24-.08 12.26 12.26 0 0 0 2.7-.43 3.4 3.4 0 0 0 2.1-.67.94.94 0 0 0 .31-.48 9.64 9.64 0 0 1 .87-1.61z" fill="#d5e7ee"/><path d="M84.64 147.05a4.87 4.87 0 0 1-2.8.3 42.93 42.93 0 0 0 4.36-2.28l.4-.2c.15.1.43-.1.47.17a.79.79 0 0 1-.24.7 8.35 8.35 0 0 0-1.06.91c-.3.34-.77.27-1.13.4z" fill="#c8dfe9"/><path d="M92.32 152.67a.15.15 0 0 0 .15.1c.5 0 .6.1.55.56s0 .55.3.75.14.43.33.6l-.57.16a.67.67 0 0 0-.2 0c-.3.07-.57.13-.58-.3a.41.41 0 0 0-.3-.37.63.63 0 0 1-.33-.61.43.43 0 0 0-.43-.47 2 2 0 0 1-1.2-.49c0-.33.26-.3.48-.32.5 0 1 .07 1.52.1.14.07.33.1.3.32z" fill="#d2e6ee"/><path d="M99.5 155.44c.3-.08.52.2.82.15a.7.7 0 0 1 .78-.07c.23.1.26.33.24.56s0 .3 0 .45a2.25 2.25 0 0 1-.58 1c-.56.1-1.1.27-1.64.42a.42.42 0 0 1-.42 0c-.12-.17 0-.3.1-.42a2.47 2.47 0 0 0 .55-1.68.29.29 0 0 1 .16-.41z" fill="#e9f3f7"/><path d="M96.46 154.9c.1-.18.4-.4-.12-.43a.66.66 0 0 1-.35-.18c-.14-.13-.22-.5-.4 0 0 .1-.17 0-.2-.07s.25-.54.5-.6c.58-.17 1.12.1 1.7.07a.5.5 0 0 1 .43.31c.1.36.4.5.7.66a2.26 2.26 0 0 1 .2.13l.2.2c.13.12.1.25 0 .38a2.65 2.65 0 0 1-1 .14c-.15-.05-.2-.18-.24-.53-.1.12 0 .2 0 .3s.1.3-.1.38a5 5 0 0 0-1.29-.74z" fill="#d4e7f0"/><path d="M62.74 154.86c-.26-.22 0-.4.08-.57a7.14 7.14 0 0 1 1-1.34c.27-.34.76-.37 1.22-.57a1.42 1.42 0 0 0-.71-.13 1 1 0 0 1-.87-.45 4.84 4.84 0 0 1-.3-.44.3.3 0 0 1 .44 0c.35.35.9.3 1.28.57l.12.07a1.48 1.48 0 0 0 .72.18.28.28 0 0 1 .16.16c0 .25-.18.32-.37.4a2.53 2.53 0 0 0-.74.45c-.33.28-.34.7-.5 1.05v.18a1.66 1.66 0 0 0-.39 1 2.53 2.53 0 0 1-1.14-.55z" fill="#c8e0ea"/><path d="M101.3 156.53v-.23c0-.58 0-.58-.63-.65-.12 0-.23 0-.35-.06a2.72 2.72 0 0 1-1-1.53.27.27 0 0 1 0-.26.45.45 0 0 0-.16-.64c-.23-.18-.2-.38 0-.5s.34-.5.72-.44a.36.36 0 0 0 0 .36c0 .07.08.17 0 .2-.4.2-.16.4 0 .6a2.13 2.13 0 0 1 .14.35c0 .08.08.2.14.22.6.1.75.68 1.18 1 .1.07.06.2.06.32v.74a1 1 0 0 1-.1.52z" fill="#e5f1f5"/><path d="M65 152.13l-.08-.08c-.16-.12-.5-.1-.4-.44a.29.29 0 0 1 .31 0 2 2 0 0 0 1.16.28c.2 0 .27.14.4.25l.16.08.16.15c.18.1.16.37.4.38h0c.28.36.25.3-.15.52a1.64 1.64 0 0 0-.68.65A1.62 1.62 0 0 1 65 155c-.07 0-.15 0-.14.1s-.05.24-.25.2-.23.1-.25.23l-.32-.1c-.2-.23-.16-.4.1-.57a1.17 1.17 0 0 0 .52-.58 1.7 1.7 0 0 1 .82-.81.9.9 0 0 0 .2-.14c.45-.38.46-.48.15-1l-.17-.08a2.56 2.56 0 0 1-.67-.13z" fill="#d4e6ee"/><path d="M65.85 152.36c.35 0 .4.25.52.45s-.16.25-.26.38a2.47 2.47 0 0 1-.74.58 1.17 1.17 0 0 0-.48.55 1.28 1.28 0 0 1-.64.7.32.32 0 0 0-.2.41c-.06 0-.13 0-.17-.05a1.2 1.2 0 0 0-.13-.31c-.23-.26-.13-.4.17-.5a.52.52 0 0 0 .15-.11c-.2-.38.27-.6.24-.93 0-.15.1-.25.2-.35a4.21 4.21 0 0 1 1.33-.81z" fill="#cde3ec"/><path d="M97.8 155.68c0-.15.17-.38-.2-.36-.15 0-.17-.12-.1-.22l.44-.62c.12.23.32.4.1.66a.15.15 0 0 0 0 .21.19.19 0 0 0 .26 0c.13-.08.24-.2.42-.06s.17.14.28 0 .07-.18 0-.28a1.87 1.87 0 0 1-.07-.22v-.07l.24.15c.24.17.37.36.22.65a1.48 1.48 0 0 0 0 .78 1.24 1.24 0 0 1-.23.82 3.21 3.21 0 0 1-.62.6 3.75 3.75 0 0 1 0-.58c.04-.6-.42-1-.73-1.46z" fill="#d7e9f1"/><path d="M63 151.3c-.32-.17-.76-.1-1-.46a4.86 4.86 0 0 1 1.29-1.5l-.15.26a14.16 14.16 0 0 1 1.19.84c.3.27.4.52 0 .73-.16.1-.12.32-.3.4a.32.32 0 0 1-.3 0 1.78 1.78 0 0 0-.74-.28z" fill="#ecf6fa"/><path d="M89.46 146.74h-.57a.84.84 0 0 1 .28-.86 1.18 1.18 0 0 0 .3-.92c0-.38.08-.75 0-1.12a.76.76 0 0 1 .2-.64 2.71 2.71 0 0 1 1.57-.08c0 .15-.18.17-.32.16s-.52 0-.63.3-.08.37.2.38.36 0 .4.18-.14.2-.26.3c-.28.16-.18.4-.07.57a.53.53 0 0 1 0 .64 2.18 2.18 0 0 1-1.12 1.1z" fill="#ecf5f9"/><path d="M87.25 155.84c-.32-.14-.1-.4-.08-.57s.24-.1.38-.06l.36.06c.1 0 .17 0 .2.1s0 .1-.1.14-.2.15-.14.28a.31.31 0 0 0 .34.17.43.43 0 0 1 .49.26c.12.27.22.56.53.7-.36.3-.4.3-.58-.08 0 0 0-.08-.08-.1-.18.27 0 .57-.13.85-.05.13 0 .3-.23.32s-.24-.13-.3-.25a2.09 2.09 0 0 1-.24-1c-.08-.12 0-.3-.1-.4a.74.74 0 0 0-.31-.41z" fill="#d2e4ec"/><path d="M84.64 147.05c0-.12.16-.14.27-.13a.82.82 0 0 0 .79-.44 2.06 2.06 0 0 1 .75-.69c.33-.17.36-.47.48-.73-.17-.1-.27.17-.4 0s0-.14.08-.2a9.72 9.72 0 0 1 1.22-.68c.07.43-.36.75-.32 1.18-.48.2-.3.8-.75 1.06a4 4 0 0 1-2.11.64z" fill="#cee2eb"/><path d="M68.4 158.2l.08-.08a.26.26 0 0 1 .25-.14c.27 0 .53 0 .8-.05s.4.1.34.37a2.21 2.21 0 0 0-.26.59.36.36 0 0 0 0 .23c0 .25.06.53-.36.55s-.74-.08-.83-.47a3 3 0 0 1-.02-1z" fill="#ecf2f4"/><path d="M87.58 146.9a2.41 2.41 0 0 1 1.06-1.28.53.53 0 0 0 0-.89c-.44-.26-.37-.57-.2-.93a1 1 0 0 1 .4-.24.83.83 0 0 1 .44.65v.1a4.8 4.8 0 0 0 .15.63l-.52 1.18a2 2 0 0 1-1.23.86c0 .01-.06.01-.1-.1z" fill="#ddecf1"/><path d="M87.58 146.9c.64-.25 1.23-.53 1.34-1.3 0-.28.3-.48.46-.7a4.37 4.37 0 0 1-.17-.62h0a1.48 1.48 0 0 0 0-.47.43.43 0 0 1 .33-.54l.15-.07a9.4 9.4 0 0 0 0 1.84.89.89 0 0 1-.28.89c-.26.2-.26.58-.5.8l-.17.08c-.3 0-.5.3-.85.3-.16 0-.3 0-.37-.14z" fill="#e5f2f6"/><path d="M100.17 158.36v1.42c0 .16 0 .46-.37.33-.15-.06-.1.1-.1.15 0 .35 0 .7-.1 1 0 .12 0 .3-.2.3s-.17-.18-.18-.3l-.08-2.15c.2.08.28 0 .4-.15s.26-.53.63-.6z" fill="#ecf4f7"/><path d="M68.38 159.2a1.3 1.3 0 0 0 1 .28c.25-.13.07-.42.22-.6v1.53a1.54 1.54 0 0 1-.07.42c0 .13-.1.27-.28.3s-.27-.1-.34-.22a3.63 3.63 0 0 1-.53-1.71z" fill="#e5edf0"/><path d="M72.27 147.27a4 4 0 0 1 2.5-.83 2.69 2.69 0 0 1 1 .22 4.11 4.11 0 0 0-1 .38 3.7 3.7 0 0 1-1.39.35c-.18 0-.34.1-.5.12s-.53.05-.6-.24z" fill="#dfecf1"/><path d="M72.27 147.27a2.59 2.59 0 0 0 1.88-.12 2.25 2.25 0 0 0 1-.46c.15-.14.42 0 .63 0l.1.08a2.86 2.86 0 0 0-1 .35.89.89 0 0 1-.36.16c-1 .14-2 .48-3.1.58-.52.06-1 .06-1.58.1a6.24 6.24 0 0 1-1.7-.33c.87 0 1.73.16 2.6.1a6 6 0 0 0 1.55-.44z" fill="#e5eff2"/><path d="M90.85 143.14h.42c.14 0 .28 0 .4.1a9 9 0 0 1-.41 2.16 1.67 1.67 0 0 1-1 .91c-.1-.1 0-.17 0-.26.3-.43.65-.83.5-1.4a.31.31 0 0 1 .06-.22c.1-.16.14-.28-.07-.44s-.1-.6.12-.84z" fill="#f5fafb"/><path d="M100.17 158.36c-.1.23-.12.48-.4.62s-.2.34-.26.53 0 .2-.1.2-.16-.1-.2-.18 0-.28-.1-.4l-.16-.46a1.85 1.85 0 0 1 1.71-1.08c-.1.3-.43.4-.48.77z" fill="#f1f8fa"/><path d="M74.5 158.44c-.07-.24 0-.34.27-.24s.57 0 .55.4-.18.82-.28 1.23c0 .1-.1.23-.24.2s-.2-.13-.2-.25a3.29 3.29 0 0 1-.1-1.36z" fill="#eef3f4"/><path d="M81.6 147.43a4 4 0 0 0 1.51.14c.4 0 .82.15 1.23 0a1.73 1.73 0 0 1 1-.05.14.14 0 0 1 .17 0 9.57 9.57 0 0 1-2.42.45c-.63-.08-1.3.1-1.88-.32-.08-.06-.2 0-.32-.06.24-.14.5-.04.7-.16z" fill="#f3f8f9"/><path d="M100.65 157.6a6.88 6.88 0 0 0-1.71 1.08l-.33-.55c0-.1-.13-.24.08-.3a8.31 8.31 0 0 0 .89-.25 1.75 1.75 0 0 1 1.15-.07z" fill="#fcfcfc"/><path d="M69.86 158.3a.7.7 0 0 0-.72-.25c-.23 0-.45.05-.67.07V158a6.9 6.9 0 0 0 1.53-.4 1.18 1.18 0 0 1 .75.09.14.14 0 0 1 0 .18c-.15.38-.56.32-.9.44z" fill="#e2ecf0"/><path d="M66.82 158c.43-.22.7-.1.83.38a.47.47 0 0 1-.56.38c-.3-.05-.27-.3-.28-.53a1.85 1.85 0 0 1 .01-.23z" fill="#e8edf0"/><path d="M98.7 157.82a.54.54 0 0 0-.08.3.36.36 0 0 1-.08-.37c.1-.22.3-.34.48-.5a1.09 1.09 0 0 0 .29-1.05c-.08-.43.28-.9-.12-1.3.3.08.32.3.33.54a1.29 1.29 0 0 0-.08.64 1.47 1.47 0 0 1-.55 1.45.57.57 0 0 0-.19.29z" fill="#e5f1f5"/><path d="M89.55 143.27a.39.39 0 0 0-.11.38c0 .23.07.5-.23.63a1.49 1.49 0 0 1-.33-.72 1.35 1.35 0 0 1 .67-.29z" fill="#e4f0f4"/><path d="M71.3 158c.4 0 .44-.4.7-.55 0 .17 0 .35-.07.53s-.08.35-.3.36-.27-.2-.32-.34z" fill="#e1e9ed"/><path d="M79.17 157.78v-1.28c0-.23.07-.4.34-.43a.67.67 0 0 0-.27.59 3.84 3.84 0 0 1-.07 1.12z" fill="#e3edf1"/><path d="M93.7 154.67a2 2 0 0 1 1.31 0z" fill="#d2e6ee"/><path d="M70.92 157.52c0-.12-.08-.24 0-.36s.08-.17.16-.15.06.15.07.23c-.24-.02-.1.22-.23.28z" fill="#dce9ef"/><path d="M88.56,156.74c0-.07-.1-.15,0-.23a.08.08,0,0,1,.07,0c.14.1,0,.22,0,.33Z" fill="#cfe3ed"/><path d="M80.64 158.15a1.23 1.23 0 0 1 .07-.63 1.14 1.14 0 0 1-.07.63z" fill="#ddeaef"/><path d="M87.56 156.2a.47.47 0 0 1 .09.41z" fill="#cfe3ed"/><path d="M70.76 157.85v-.18l.18-.15a.45.45 0 0 1-.18.33z" fill="#dce9ef"/><path d="M96.5 153.05h-.25c-.12.1-.2 0-.32 0-.28-.22-.6-.4-.7-.76a.76.76 0 0 0-.47-.4 1.08 1.08 0 0 1-.38-.28c-.25-.34-.33-.76-.65-1.06a1.32 1.32 0 0 1 1.15.31l1 .58a.38.38 0 0 0 .26.07l1.33-.18c.1 0 .28 0 .28-.12 0-.4.3-.33.6-.42a8.82 8.82 0 0 1 2.7-.39c0 .2-.2.07-.27.14-.24.07-.46.2-.7.27h-.1a.93.93 0 0 0-.45.15 7.81 7.81 0 0 0-1.22.77 1.59 1.59 0 0 1-.76.33.71.71 0 0 0-.59.57.52.52 0 0 1-.42.42z" fill="#f7f9fa"/><path d="M90.93 150.67c.68 0 1.36-.13 2-.08a.52.52 0 0 1 .35 0 .49.49 0 0 1 .26.69.32.32 0 0 1-.46 0c-.13-.08-.24-.2-.38-.26h-.1c-.24-.3-.55-.05-.83-.1a3.39 3.39 0 0 0-1.45.4 2.64 2.64 0 0 1-1.45.24 3.84 3.84 0 0 0-.48 0 18.16 18.16 0 0 1-2 .21.34.34 0 0 1-.2 0 3.73 3.73 0 0 1-1.18-.08c0-.35.36-.37.6-.44.7-.18 1.45-.14 2.17-.33.36-.1.8 0 1.16-.14a4.88 4.88 0 0 1 1.99-.12z" fill="#eff7fa"/><path d="M80.4 151.9a1.51 1.51 0 0 1 .18.09c.12.06.35-.1.37.1s-.2.13-.3.2a1.11 1.11 0 0 1-1 .1 3 3 0 0 0-1.44 0c-.45.12-.86-.13-1.3-.2a3.72 3.72 0 0 0-1.45 0 .39.39 0 0 1-.53-.32 8 8 0 0 1 2.54 0 .44.44 0 0 0 .15-.05 1.87 1.87 0 0 1 .4-.07c.74 0 1.48 0 2.22.14a.11.11 0 0 1 .16-.01z" fill="#ddeaef"/><path d="M64.05 151.5c-.17-.3-.07-.5.25-.56s.16-.15.07-.26a2.07 2.07 0 0 0-.79-.73c-.16-.07-.45-.1-.43-.37a.72.72 0 0 1 .47.2 9.61 9.61 0 0 0 1.56 1 1.94 1.94 0 0 1 1.16 1.38 4.05 4.05 0 0 1-1.88-.46c-.16-.05-.35.04-.4-.2z" fill="#f0f8fb"/><path d="M80.4 151.9h-.16a20.81 20.81 0 0 1 2.85-.25 2.92 2.92 0 0 0 1.84-.28 5.4 5.4 0 0 1 1.69-.38c.83-.2 1.7-.1 2.52-.3a3.66 3.66 0 0 1 1.8 0c-.18.1-.37 0-.55 0a8.32 8.32 0 0 0-1.8.26 2.71 2.71 0 0 0-1.15.28.92.92 0 0 1-.66.06 2.76 2.76 0 0 0-1.36.23l-.44.18a.91.91 0 0 1-.61.23.48.48 0 0 0-.29.07h-.57a.54.54 0 0 0-.35-.07 25.41 25.41 0 0 1-2.76-.02z" fill="#f4f9fb"/><path d="M93.46 151.28a1.2 1.2 0 0 0-.16-.69c0-.05.06-.05.08-.08a.53.53 0 0 0 .33 0 .69.69 0 0 1 .65.63c0 .32.33.4.58.57.5.3.67.83 1 1.26-.26.15-.48-.1-.73-.07a1.06 1.06 0 0 1-1.08-.61 2.88 2.88 0 0 0-.59-.76.19.19 0 0 1-.08-.25z" fill="#f2f7f8"/><path d="M90.85 143.14a3.49 3.49 0 0 0 .19 1.1 2.16 2.16 0 0 1-.76 2 1.31 1.31 0 0 1-.82.46c.56-.3.68-.88 1-1.32a.18.18 0 0 0 0-.27c-.17-.2-.1-.44-.2-.66s.05-.18.17-.2l.38-.1a.19.19 0 0 0-.22-.05c-.2.06-.4.08-.5-.15a.81.81 0 0 1 0-.57c.16-.38.5-.22.77-.24z" fill="#f0f8fa"/><path d="M100.65 150.44a.54.54 0 0 0 .33-.08 2.31 2.31 0 0 1 .74.08c.17.1.4 0 .57.07l.32.08a1.54 1.54 0 0 1-1.1 0 .69.69 0 0 0-1 .44c-.15.35-.48.6-.54 1 0 .1-.15.1-.24.1a1.42 1.42 0 0 0-.6.23c-.43-.42-.42-.7.05-1.07.25-.2.42-.5.77-.62h0a2.08 2.08 0 0 0 .7-.23z" fill="#edf5f8"/><path d="M68.46 152.5l-.08-.07c.1-.55.17-.6.68-.66.76-.08 1.5 0 2.26-.1l.74-.08a3.39 3.39 0 0 1-1.26.27c-.15 0-.25 0-.28.2a.67.67 0 0 1-.74.57 4.89 4.89 0 0 1-1.32-.12z" fill="#eff5f7"/><path d="M71.32 151.67a14.19 14.19 0 0 1-1.6.14 7.73 7.73 0 0 1-.84.13c-.1 0-.15.08-.2.17a.53.53 0 0 1-.31.33 8.45 8.45 0 0 1-1.23-.16 3.32 3.32 0 0 1 2.15-.62l2.02.01z" fill="#f5f8fa"/><path d="M85.54 147.5h-.17a1.57 1.57 0 0 1 .73-.2 4.17 4.17 0 0 0 1.4-.34 3.59 3.59 0 0 0 1.22-.15 4.8 4.8 0 0 1-2 .78.78.78 0 0 1-.48 0 .8.8 0 0 0-.7-.09z" fill="#edf5f7"/><path d="M102.3 150.5a1.09 1.09 0 0 1-.57-.07 1.11 1.11 0 0 1 .57.07zm-8.92 0l-.08.08H93a.84.84 0 0 1 .38-.08z" fill="#f7f9fa"/><path d="M86.43 151.74a11.7 11.7 0 0 1 2-.23 5.19 5.19 0 0 1 1.12-.06 1.15 1.15 0 0 0 .7-.23 2.12 2.12 0 0 1 1.35-.27c.2 0 .64.66.57.88a2.6 2.6 0 0 1-.23.68h-1.4a.93.93 0 0 0-.57.13 1.12 1.12 0 0 1-.76-.22.84.84 0 0 0-.42-.16c-.15 0-.46 0-.15-.3.07-.07 0-.15 0-.2a.28.28 0 0 0-.33-.07 3.09 3.09 0 0 1-1.65.1.2.2 0 0 1-.24-.05z" fill="#d7e8ef"/><path d="M86.43 151.74h.25a3.4 3.4 0 0 1-.9.16h0c.1-.2.3-.2.5-.16z" fill="#d3e5ed"/><path d="M77.78 153.67c-.14.17-.28.08-.4 0z" fill="#e7f0f4"/><path d="M86.27 151.74a1.09 1.09 0 0 0-.49.16 7 7 0 0 0-1.71.07c.23-.26.62-.14.9-.3a6.3 6.3 0 0 1 1.3.07z" fill="#e3f0f4"/><path d="M99.92 150.67a1.48 1.48 0 0 1-.51.68c-.26.18-.62.3-.3.72v.3a1.68 1.68 0 0 1-1.13.19c-.38-.08-.68.2-1 .34a1 1 0 0 1-.48.16.77.77 0 0 0 .17-.38.89.89 0 0 1 .81-.84 1.24 1.24 0 0 0 .87-.56.25.25 0 0 1 .34-.14.2.2 0 0 0 .21-.08 1.54 1.54 0 0 1 1.01-.38z" fill="#f2f7f9"/><path d="M93.46 151.28c.6.25.7.88 1.1 1.3.1.1.15.25.33.24a5 5 0 0 1 1 .15l.33.08.08.08c-.14.08-.2.3-.44 0S95.3 153 95 153a1.79 1.79 0 0 1-.76-.2 1.6 1.6 0 0 0-.87-.17.62.62 0 0 1-.57-.67.76.76 0 0 0-.16-.53c-.12-.17-.15-.36.08-.5.28.06.46.27.74.34z" fill="#e1eff3"/><path d="M67.07 152.74c-.28 0-.43-.1-.4-.38.24.04.26.27.4.38z" fill="#dce9ef"/><path d="M64.05 151.5l.4.16.4.38a4.3 4.3 0 0 1-1.24-.5 1.13 1.13 0 0 0-.48-.19l-.16-.07a2.76 2.76 0 0 1 1.06.22z" fill="#cde3ec"/><path d="M92.73 150.9a.45.45 0 0 0 .21.49.2.2 0 0 1 .1.22.93.93 0 0 0 .34 1l-1.06.08-.33-.16c-.32-.14-.17-.43-.07-.54s.06-.37-.1-.5 0-.38-.43-.38a2.81 2.81 0 0 0-1.35.33 4.13 4.13 0 0 1-1.57.09c.34-.2.73-.06 1.1-.13a1.29 1.29 0 0 0 .53-.12 4 4 0 0 1 1.72-.52 1.24 1.24 0 0 1 .9.16z" fill="#dcebf1"/><path d="M65 152.13a2.49 2.49 0 0 1 .73.15c-.33.12-.55-.05-.73-.15z" fill="#cde3ec"/><path d="M89.2 144.28c.08.2.24.38.17.62a.47.47 0 0 1-.17-.62z" fill="#e4f0f4"/><path d="M100.65 150.44c-.2.17-.42.34-.73.23a1.74 1.74 0 0 1 .73-.23z" fill="#f2f7f9"/><path d="M92.73 150.9c-.3 0-.58-.2-.9-.16a.76.76 0 0 1 .9.16z" fill="#e1eff3"/><path d="M56.13 12.18c2.9.92 2.9 4 .3 5.05-1.23.6-2.6.76-3.83 1.53-1.07.76-1.22 1.84-2 2.9C48.8 24 46.2 23 44 24.57c-1 .77-1 1.43-1.18 2.6 0 .6.3 3.06-.92 3.2-1.68 0 .46-7.45-2-7.45-2.75 0-.92 5-1.07 7.45-.15 1.68-1.38 4.6-3.06 2.3-1.68-2.14.3-6.42-.15-9-.62-4-3.68-6.58-.3-10.4 2.45-2.9 6.12-1.53 9.5-2.75 3.83-1.25 7.66.28 11.33 1.66z" fill="#eceff0"/><path d="M41.7 23.66v-.08a1.23 1.23 0 0 0-.08-.22 2.09 2.09 0 0 0-.42-.63 1.3 1.3 0 0 0-.79-.37 2.09 2.09 0 0 0-.9.16 3.55 3.55 0 0 0-1.5 1.21 3 3 0 0 0-.37.69 1 1 0 0 0-.08.22.73.73 0 0 1 0 .08c0 .06-.32 0-.32-.06a.66.66 0 0 0 0-.09 1.86 1.86 0 0 1 0-.26 3.83 3.83 0 0 1 .33-.83A3.52 3.52 0 0 1 39.25 22a2.21 2.21 0 0 1 1.19-.15 1.7 1.7 0 0 1 .62.22 2 2 0 0 1 .45.4 2.23 2.23 0 0 1 .41.82c0 .1 0 .2.07.25v.1c.01.03-.26.1-.3.03zm14.16-7.5l-.48.22-1.2.45a10 10 0 0 0-1.5.61 4.44 4.44 0 0 0-1.21.9 2.58 2.58 0 0 0-.36.61l-.36.75a9.67 9.67 0 0 1-.82 1.49 2 2 0 0 1-1.09.88 1.14 1.14 0 0 1-.44 0h-.16c-.12 0 0-.32.08-.3a.29.29 0 0 0 .12 0 .71.71 0 0 0 .3 0 1.75 1.75 0 0 0 .8-.79 11.08 11.08 0 0 0 .69-1.46l.33-.78a3.53 3.53 0 0 1 .45-.76 4.35 4.35 0 0 1 1.42-1 10.88 10.88 0 0 1 1.58-.59l1.23-.34.47-.17c.14-.01.3.23.16.3zm-5.1 1.03l-.08.1a2.85 2.85 0 0 0-.22.24c-.17.18-.34.42-.5.6a3.53 3.53 0 0 0-.41.6 1 1 0 0 0-.1.26.82.82 0 0 0 0 .11.58.58 0 0 1-.32 0V19a1.58 1.58 0 0 1 0-.36 2 2 0 0 1 .38-.85 2.56 2.56 0 0 1 .67-.56 2.59 2.59 0 0 1 .3-.17l.12-.06a.64.64 0 0 1 .15.21zM36.65 32.07l-.2-.15c-.07-.05-.13-.13-.2-.2a3.67 3.67 0 0 1-.23-.29 3.21 3.21 0 0 1-.46-1.59 6.9 6.9 0 0 1 .18-1.58l.18-.83h.32c.01 0 0 .37 0 .85v1.5a3.81 3.81 0 0 0 .25 1.39l.14.26.14.2.16.16c-.05.1-.2.3-.26.3zm.43-.84l-.08-.1a1.27 1.27 0 0 1-.16-.23 1.82 1.82 0 0 1-.24-.66 2.22 2.22 0 0 1 0-.68 3.55 3.55 0 0 1 .07-.35.86.86 0 0 1 .32 0l.2 1c0 .17 0 .4.07.58s0 .17 0 .23v.1a.8.8 0 0 1-.17.11zM35.1 19.5l-.1-.2a4.16 4.16 0 0 1-.23-.47 5.51 5.51 0 0 1-.4-1.31 3.7 3.7 0 0 1 .11-1.4 2.13 2.13 0 0 1 .18-.51l.08-.2s.3.08.3.12v.2a1.88 1.88 0 0 0-.07.48 5.05 5.05 0 0 0 .03 1.23 11.56 11.56 0 0 0 .22 1.24c0 .2.1.37.13.5l.06.2c-.03.05-.27.15-.3.12zm.54-1.5l-.15-.33a2 2 0 0 1-.16-.62 3.94 3.94 0 0 1 .13-.95.86.86 0 0 1 .32 0 7.56 7.56 0 0 1 .22.9 5.42 5.42 0 0 1 0 .57 2.87 2.87 0 0 1 0 .32 1.18 1.18 0 0 1-.36.11z" fill="#c1ccd4"/><path d="M38.3 12.16c-.8.18-1.25 1-.53 1.6.53.53 1.25.18 1.87 0a4.07 4.07 0 0 1 2-.27c.63.1 1.25.45 1.88.27.8-.18 1.5-1 .9-1.8s-1.7-.35-2.5-.27c-1.25.1-2.4-.17-3.57.36zm12.22-1.52c-1.07-.1-2.4.18-1.52 1.52.54.9 1.52.8 2.5.9.8.1 1.78.36 1.52-.7s-1.7-1.34-2.5-1.8z" fill="#fff"/><g fill="#88888c"><path d="M207.8 106.26v35a13.56 13.56 0 0 1-6.54 0v-35h-4.1a5.2 5.2 0 0 1-.39-2.13 5.87 5.87 0 0 1 .39-2.21h4.1V97.2c0-7.17 3-11.27 11-11.27a25.48 25.48 0 0 1 6.85.87 6.73 6.73 0 0 1 0 4.1 18.1 18.1 0 0 0-4.73-.63c-5.12 0-6.62 2.2-6.62 6.93v4.73h11.35a5.75 5.75 0 0 1 .4 2.21 5.56 5.56 0 0 1-.4 2.13zm25.46.8s4.73-5.36 14-5.36a8 8 0 0 1 .31 2.28 7.86 7.86 0 0 1-.31 2.21 16.4 16.4 0 0 0-14 7.17v27.9a16 16 0 0 1-3.24.4 15.24 15.24 0 0 1-3.31-.4v-38.93a15.24 15.24 0 0 1 3.31-.4 15 15 0 0 1 3.24.4zm20.4 7.17c0-8 4.26-12.53 15.85-12.53 11.82 0 15.52 4.57 15.52 12.53v9a102.66 102.66 0 0 1-12.45.63h-12.37v5.52c0 5.6 2.44 8.2 10.4 8.2 8.27 0 13.24-2.76 13.24-2.76a5 5 0 0 1 .47 2.21 4.87 4.87 0 0 1-.47 2.13s-4.5 2.75-13.24 2.75c-12.38 0-17-4.57-17-12.53zm25.15 5.28v-5.28c0-5.6-2.2-8.2-9.3-8.2s-9.3 2.6-9.3 8.2v5.28zm14.98-5.28c0-8 4.25-12.53 15.84-12.53 11.82 0 15.53 4.57 15.53 12.53v9a102.74 102.74 0 0 1-12.46.63h-12.37v5.52c0 5.6 2.44 8.2 10.4 8.2 8.28 0 13.25-2.76 13.25-2.76a5 5 0 0 1 .47 2.21 4.87 4.87 0 0 1-.47 2.13s-4.5 2.75-13.25 2.75c-12.37 0-16.94-4.57-16.94-12.53zm25.14 5.28v-5.28c0-5.6-2.2-8.2-9.3-8.2s-9.3 2.6-9.3 8.2v5.28zM347 137.3a6.32 6.32 0 0 1 .32 2 5.45 5.45 0 0 1-.32 1.89 11.43 11.43 0 0 1-4.09.71c-5.92 0-8.12-3.23-8.12-8.82V86.55a13.9 13.9 0 0 1 6.54 0v46.5c0 3.07.94 4.5 3.7 4.5a14.74 14.74 0 0 0 1.97-.24zm30.9.8s-4.73 3.78-13.63 3.78c-7.88 0-10.88-3.86-10.88-10.64v-1.18c0-6.3 4-9.7 14.2-10.8l10.32-1.1v-4.4c0-5.2-2.2-7.73-8.9-7.73-6.54 0-8.67 2.44-8.67 7.57v.94a13.59 13.59 0 0 1-3.08.4 13.8 13.8 0 0 1-3.15-.4v-.94c0-7.57 3.47-11.9 14.9-11.9 11.27 0 15.37 4.33 15.37 12.06v27.5a15 15 0 0 1-3.23.4 14.1 14.1 0 0 1-3.24-.4zm-9.22-14.66c-6.62.7-8.75 2.92-8.75 6.62v1.18c0 4.26 1.58 6.3 6.7 6.3 8.12 0 11.27-3.86 11.27-3.86v-11.35zm32.1-17.97s4.65-3.78 13.32-3.78 11.82 4.57 11.82 12.53v27a15.24 15.24 0 0 1-3.31.4 14.86 14.86 0 0 1-3.23-.4v-27c0-5.6-1.74-8.2-7.4-8.2-8.12 0-11.2 3.86-11.2 3.86v31.37a16 16 0 0 1-3.24.4 15.24 15.24 0 0 1-3.31-.4v-38.93a15.24 15.24 0 0 1 3.31-.4 15 15 0 0 1 3.24.4zm34.6 8.75c0-8 4.18-12.53 15.45-12.53s14.9 4.57 14.9 12.53v1a12.47 12.47 0 0 1-3 .4 12.1 12.1 0 0 1-2.91-.4v-1c0-5.6-2.13-8.2-9-8.2s-8.9 2.6-8.9 8.2v15.13c0 5.6 2.37 8.2 10 8.2 7.9 0 12.6-2.76 12.6-2.76A4.94 4.94 0 0 1 465 137a4.79 4.79 0 0 1-.48 2.13s-4.25 2.75-12.6 2.75c-12.06 0-16.55-4.57-16.55-12.53zm38.47 0c0-8 4.26-12.53 15.84-12.53 11.83 0 15.53 4.57 15.53 12.53v9a102.66 102.66 0 0 1-12.45.63h-12.38v5.52c0 5.6 2.45 8.2 10.4 8.2 8.27 0 13.24-2.76 13.24-2.76a5 5 0 0 1 .47 2.21 4.87 4.87 0 0 1-.47 2.13s-4.5 2.75-13.24 2.75c-12.38 0-17-4.57-17-12.53zM499 119.5v-5.28c0-5.6-2.2-8.2-9.3-8.2s-9.3 2.6-9.3 8.2v5.28zm22.37-14.03s4.65-3.78 13.24-3.78 11.67 4.57 11.67 12.53v27a15.24 15.24 0 0 1-3.31.4 14.86 14.86 0 0 1-3.23-.4v-27c0-5.6-1.74-8.2-7.26-8.2-8 0-11.1 3.86-11.1 3.86v31.37a15.86 15.86 0 0 1-3.23.4 15.24 15.24 0 0 1-3.31-.4v-54.7a15.61 15.61 0 0 1 3.31-.39 15.34 15.34 0 0 1 3.23.39zm59.43 32.63s-4.65 3.78-13.16 3.78-11.75-4.57-11.75-12.53v-27a15.24 15.24 0 0 1 3.31-.4 14.86 14.86 0 0 1 3.23.4v27c0 5.6 1.74 8.2 7.25 8.2 8 0 11.12-3.86 11.12-3.86v-31.37a15.86 15.86 0 0 1 3.23-.4 15.24 15.24 0 0 1 3.31.4v38.93a15.24 15.24 0 0 1-3.31.4 14.86 14.86 0 0 1-3.23-.4zm22.7-32.63s4.65-3.78 13.32-3.78 11.82 4.57 11.82 12.53v27a13.56 13.56 0 0 1-6.54 0v-27c0-5.6-1.73-8.2-7.4-8.2-8.12 0-11.2 3.86-11.2 3.86v31.37a16 16 0 0 1-3.23.4 15.12 15.12 0 0 1-3.31-.4v-38.93a13.56 13.56 0 0 1 6.54 0zm43.84.95v24.2c0 4.73 1.65 6.94 6.78 6.94a14 14 0 0 0 4.33-.79 6.32 6.32 0 0 1 .32 2 6.24 6.24 0 0 1-.32 2 21 21 0 0 1-6.46 1.18c-8.12 0-11.12-4.1-11.12-11.27v-24.25h-4.1a5.56 5.56 0 0 1-.4-2.13 5.75 5.75 0 0 1 .4-2.21h4.4l.63-7.64a9.72 9.72 0 0 1 5.52 0v7.64h11.1a5.75 5.75 0 0 1 .4 2.21 5.56 5.56 0 0 1-.4 2.13zM196.76 160.4h2l.54 2.16h.14a5.62 5.62 0 0 1 2.15-1.93 7.61 7.61 0 0 1 8.37 1.46c1.17 1.42 1.76 3.73 1.76 7a13.26 13.26 0 0 1-.59 4.08 8.94 8.94 0 0 1-1.68 3.08 7.4 7.4 0 0 1-2.61 1.95 8.32 8.32 0 0 1-3.4.68 10.69 10.69 0 0 1-2.11-.16 9.1 9.1 0 0 1-1.67-.56v7.5h-2.88zm7.24 2.1a4.17 4.17 0 0 0-2.9.95 5.4 5.4 0 0 0-1.49 2.9v8.93a4.84 4.84 0 0 0 1.48.77 7.24 7.24 0 0 0 2.19.27 4.75 4.75 0 0 0 3.94-1.85 8.67 8.67 0 0 0 1.46-5.46 13 13 0 0 0-.25-2.68 5.94 5.94 0 0 0-.81-2.05 3.88 3.88 0 0 0-1.44-1.32 4.63 4.63 0 0 0-2.18-.46zm11.23 6.9c0-3 .67-5.38 2-7a7.21 7.21 0 0 1 5.85-2.43 8.65 8.65 0 0 1 3.51.66 6.41 6.41 0 0 1 2.47 1.91 8.49 8.49 0 0 1 1.44 3 15 15 0 0 1 .47 3.87q0 4.58-2 7a7.21 7.21 0 0 1-5.85 2.43 8.49 8.49 0 0 1-3.51-.67 6.39 6.39 0 0 1-2.47-1.9 8.58 8.58 0 0 1-1.44-3 15.1 15.1 0 0 1-.47-3.87zm3 0a12.54 12.54 0 0 0 .27 2.63 7 7 0 0 0 .85 2.19 4.45 4.45 0 0 0 1.51 1.51 4.21 4.21 0 0 0 2.27.58c3.26 0 4.9-2.28 4.9-6.9a12.72 12.72 0 0 0-.27-2.67 7 7 0 0 0-.85-2.19 4.15 4.15 0 0 0-3.78-2.05c-3.28-.03-4.92 2.28-4.92 6.9zm18.97-5.8a7 7 0 0 1 2.62-2.43 8.16 8.16 0 0 1 3.6-.7 6.24 6.24 0 0 1 5.1 2.16q1.78 2.16 1.78 6.37 0 4.86-2.07 7.35a7.13 7.13 0 0 1-5.78 2.48 6.84 6.84 0 0 1-5.94-2.74q-2-2.73-2-8.6a38 38 0 0 1 .31-5.29 16 16 0 0 1 .9-3.71 7.24 7.24 0 0 1 1.44-2.41 6.39 6.39 0 0 1 1.91-1.42 8.19 8.19 0 0 1 2.32-.74q1.26-.23 2.7-.36a24.7 24.7 0 0 0 2.93-.42 3.45 3.45 0 0 0 1.71-.84l.33 2.6a3.31 3.31 0 0 1-.8.54 5 5 0 0 1-1 .36 12.86 12.86 0 0 1-1.46.25l-2 .18a17.47 17.47 0 0 0-2.72.38 4.4 4.4 0 0 0-2 1 5.22 5.22 0 0 0-1.34 2.2 15.92 15.92 0 0 0-.66 3.76zm.32 5.83a11.84 11.84 0 0 0 .29 2.63 7.11 7.11 0 0 0 .88 2.22 4.45 4.45 0 0 0 1.53 1.49 4.32 4.32 0 0 0 2.2.54 4.16 4.16 0 0 0 3.69-1.78 9.5 9.5 0 0 0 1.2-5.28 11.7 11.7 0 0 0-.25-2.52 6.14 6.14 0 0 0-.79-2 3.7 3.7 0 0 0-1.37-1.3 4.08 4.08 0 0 0-2-.45 4.77 4.77 0 0 0-4.1 1.64 7.66 7.66 0 0 0-1.28 4.81z"/><path d="M253.82 169.4q0-4.57 2-7a7.21 7.21 0 0 1 5.88-2.41 8.59 8.59 0 0 1 3.51.66 6.41 6.41 0 0 1 2.47 1.91 8.16 8.16 0 0 1 1.44 3 15 15 0 0 1 .47 3.87q0 4.58-2 7a7.18 7.18 0 0 1-5.85 2.43 8.49 8.49 0 0 1-3.51-.67 6.35 6.35 0 0 1-2.46-1.9 8.24 8.24 0 0 1-1.44-3 14.66 14.66 0 0 1-.51-3.89zm3 0a12.54 12.54 0 0 0 .27 2.63 6.94 6.94 0 0 0 .84 2.19 4.54 4.54 0 0 0 1.51 1.51 4.21 4.21 0 0 0 2.27.58q4.9 0 4.9-6.9a12.72 12.72 0 0 0-.27-2.67 6.72 6.72 0 0 0-.85-2.19 4.42 4.42 0 0 0-1.51-1.5 4.36 4.36 0 0 0-2.27-.55c-3.27-.03-4.9 2.28-4.9 6.9zm28.18-6.47h-5.6v15.48h-2.9v-15.48h-5.62v-2.52H285zm2.55-1.2a10.24 10.24 0 0 1 3.19-1.22 17.34 17.34 0 0 1 3.79-.4 7.64 7.64 0 0 1 3 .5 4.24 4.24 0 0 1 1.73 1.32 4.53 4.53 0 0 1 .79 1.78 9.91 9.91 0 0 1 .2 1.94l-.1 4.22-.1 3.88.1 2.52a11 11 0 0 0 .4 2.2h-2.13l-.75-2.52h-.18a6.07 6.07 0 0 1-.81 1 5.53 5.53 0 0 1-1.17.86 6.76 6.76 0 0 1-1.59.63 7.5 7.5 0 0 1-2.05.26 6.2 6.2 0 0 1-2.14-.36 5.08 5.08 0 0 1-1.71-1 4.86 4.86 0 0 1-1.14-1.6 5.32 5.32 0 0 1-.41-2.13 5 5 0 0 1 .65-2.64 4.65 4.65 0 0 1 1.82-1.69 9 9 0 0 1 2.8-.9 22.42 22.42 0 0 1 3.62-.27h1a6.59 6.59 0 0 1 1 .07l.1-2a3.85 3.85 0 0 0-.79-2.77 4.05 4.05 0 0 0-2.88-.79 10.46 10.46 0 0 0-1.32.09l-1.44.26a11.44 11.44 0 0 0-1.4.41 7.08 7.08 0 0 0-1.17.54zm5.1 14.44a5.58 5.58 0 0 0 1.8-.27 5 5 0 0 0 1.37-.69 4.17 4.17 0 0 0 .95-.92 3.77 3.77 0 0 0 .56-1v-3l-1-.05h-1a17.37 17.37 0 0 0-2.18.13 6.65 6.65 0 0 0-1.87.47 3.32 3.32 0 0 0-1.3.93 2.33 2.33 0 0 0-.48 1.5 2.66 2.66 0 0 0 .9 2.07 3.31 3.31 0 0 0 2.25.83zm60.85-13.25h-5.6v15.48H345v-15.48h-5.62v-2.52h14.12zm2.85-2.5c.83 0 1.72-.1 2.64-.18s2.07-.1 3.44-.1q3.57 0 5.1 1.1a3.84 3.84 0 0 1 1.55 3.33 4.69 4.69 0 0 1-.74 2.47 4.33 4.33 0 0 1-2.43 1.78v.17a4.8 4.8 0 0 1 3 1.47 5.17 5.17 0 0 1-1.15 7 11.61 11.61 0 0 1-6.05 1.26c-1 0-1.94 0-2.8-.1l-2.55-.2zm6.4 7.56a3.87 3.87 0 0 0 1.26-.21 3.77 3.77 0 0 0 1.1-.6 3.15 3.15 0 0 0 .79-.88 2 2 0 0 0 .31-1.08 2.22 2.22 0 0 0-.86-2 6 6 0 0 0-3-.55h-1.82l-1.27.07V168zm-3.52 8c.45 0 .9.08 1.35.1h1.56a7.36 7.36 0 0 0 3.58-.68 2.5 2.5 0 0 0 1.17-2.34 2.59 2.59 0 0 0-1-2.11 5.69 5.69 0 0 0-3.51-.81h-3.16zm14.07-6.6q0-4.57 2-7a7.21 7.21 0 0 1 5.85-2.43 8.67 8.67 0 0 1 3.52.66 6.45 6.45 0 0 1 2.46 1.91 8.16 8.16 0 0 1 1.44 3 15 15 0 0 1 .47 3.87q0 4.58-2 7a7.22 7.22 0 0 1-5.86 2.43 8.49 8.49 0 0 1-3.51-.67 6.43 6.43 0 0 1-2.46-1.9 8.24 8.24 0 0 1-1.44-3 15.09 15.09 0 0 1-.47-3.87zm3 0a12.54 12.54 0 0 0 .27 2.63 6.94 6.94 0 0 0 .84 2.19 4.48 4.48 0 0 0 1.52 1.51 4.18 4.18 0 0 0 2.26.58q4.9 0 4.9-6.9a12.72 12.72 0 0 0-.27-2.67 6.72 6.72 0 0 0-.85-2.19 4.15 4.15 0 0 0-3.78-2.05c-3.27-.03-4.9 2.28-4.9 6.9zm30.3 7.82a7.88 7.88 0 0 1-2.63 1.21 12.47 12.47 0 0 1-3.17.41 8.88 8.88 0 0 1-3.61-.67 6.84 6.84 0 0 1-2.56-1.9 8.38 8.38 0 0 1-1.53-3 13.84 13.84 0 0 1-.5-3.87 12.19 12.19 0 0 1 .61-4 8.41 8.41 0 0 1 1.71-3 7.24 7.24 0 0 1 2.65-1.81A9 9 0 0 1 401 160a15 15 0 0 1 3 .27 8.77 8.77 0 0 1 2.27.77l-.83 2.52a7.78 7.78 0 0 0-1.94-.77 9.36 9.36 0 0 0-2.25-.27 5.41 5.41 0 0 0-4 1.38 6.57 6.57 0 0 0-1.78 4.23H404v2.38h-8.57a8.62 8.62 0 0 0 .52 2.27 5.84 5.84 0 0 0 1.16 1.87 5.12 5.12 0 0 0 1.82 1.24 7.48 7.48 0 0 0 5 0 6.19 6.19 0 0 0 1.75-.9zm18.86-9.5l.22-3.42h-.18l-1.3 2.77-4.35 7.05h-1l-4.54-7.05-1.18-2.77H413l.3 3.38v10.73h-2.7v-18h2.84l5 8.06 1 2.1h.08l1.08-2.16 4.7-8h2.88v18h-2.8zm13.66 4.35l1 3.46h.18l.8-3.5 3.5-11.63h2.88l-5.33 16.16-1.2 3.42a18.9 18.9 0 0 1-1.31 2.95A7.31 7.31 0 0 1 438 185a3.1 3.1 0 0 1-2.09.78 5.35 5.35 0 0 1-2.12-.36l.5-2.5a2.49 2.49 0 0 0 .9.18 2.62 2.62 0 0 0 1.94-1.06 8.61 8.61 0 0 0 1.55-3.65l-7.23-18h3.3zm27.88 6.48a4.28 4.28 0 0 1-1.28.25h-1.2a6 6 0 0 1-5-2.3q-1.75-2.3-1.76-7.13 0-4.6 1.94-6.95a6.9 6.9 0 0 1 5.62-2.34 9.52 9.52 0 0 1 1.73.14v-7h2.73v7.1l1.16-.14c.34-.02.66 0 1 0a6.73 6.73 0 0 1 5.36 2.07q1.8 2.07 1.8 6.86a16 16 0 0 1-.48 4.08 9 9 0 0 1-1.43 3.08 6.46 6.46 0 0 1-2.28 1.95 6.89 6.89 0 0 1-3.12.68c-.2 0-.53 0-1-.05a4.69 4.69 0 0 1-1-.2v7H467zm-1.77-2.1h.87a6.88 6.88 0 0 0 .93-.15v-13.67c-.28 0-.55-.08-.8-.1s-.55 0-.9 0a4.08 4.08 0 0 0-3.48 1.67c-.83 1.12-1.24 2.86-1.24 5.24a13.82 13.82 0 0 0 .27 2.81 7.07 7.07 0 0 0 .85 2.25 4.17 4.17 0 0 0 1.45 1.47 4 4 0 0 0 2.08.49zm6.1-14h-.78a4.29 4.29 0 0 0-.84.17v13.68q.36.06.8.1h1a3.82 3.82 0 0 0 3.47-1.9 10.65 10.65 0 0 0 1.17-5.51 9.25 9.25 0 0 0-1.06-4.81 4 4 0 0 0-3.76-1.68zm11.05 6.95q0-4.57 2-7a7.21 7.21 0 0 1 5.85-2.43 8.59 8.59 0 0 1 3.51.66 6.41 6.41 0 0 1 2.47 1.91 8.16 8.16 0 0 1 1.44 3 15 15 0 0 1 .47 3.87q0 4.58-2 7a7.18 7.18 0 0 1-5.85 2.43 8.49 8.49 0 0 1-3.51-.67 6.43 6.43 0 0 1-2.46-1.9 8.24 8.24 0 0 1-1.44-3 15.09 15.09 0 0 1-.48-3.87zm3 0a12.54 12.54 0 0 0 .27 2.63 6.94 6.94 0 0 0 .84 2.19 4.48 4.48 0 0 0 1.52 1.51 4.15 4.15 0 0 0 2.26.58q4.9 0 4.9-6.9a12.72 12.72 0 0 0-.27-2.67 6.72 6.72 0 0 0-.85-2.19 4.15 4.15 0 0 0-3.78-2.05c-3.27-.03-4.9 2.28-4.9 6.9zm17.3-9h2l.54 2.16h.15a5.52 5.52 0 0 1 2.14-1.93 7.61 7.61 0 0 1 8.37 1.46c1.18 1.42 1.76 3.73 1.76 7a13.26 13.26 0 0 1-.59 4.08 8.92 8.92 0 0 1-1.67 3.08 7.58 7.58 0 0 1-2.61 1.95 8.41 8.41 0 0 1-3.41.68 10.51 10.51 0 0 1-2.1-.16 8.93 8.93 0 0 1-1.68-.56v7.5h-2.88zm7.32 2.1a4.13 4.13 0 0 0-2.89.95 5.34 5.34 0 0 0-1.5 2.9v8.93a5.08 5.08 0 0 0 1.48.77 7.26 7.26 0 0 0 2.2.27 4.78 4.78 0 0 0 3.94-1.85 8.73 8.73 0 0 0 1.45-5.46 13 13 0 0 0-.25-2.68 5.75 5.75 0 0 0-.81-2.05 3.88 3.88 0 0 0-1.44-1.32 4.63 4.63 0 0 0-2.18-.46zm27 5.22l.2-3.42h-.18l-1.3 2.77-4.36 7.05h-1l-4.53-7.05-1.2-2.77h-.14l.28 3.38v10.73h-2.66v-18h2.9l5 8.06 1.05 2.1h.07l1.08-2.16 4.7-8h2.88v18H537zm8.1-5.98a10.24 10.24 0 0 1 3.19-1.22 17.34 17.34 0 0 1 3.79-.4 7.64 7.64 0 0 1 3 .5 4.24 4.24 0 0 1 1.73 1.32 4.53 4.53 0 0 1 .79 1.78 9.91 9.91 0 0 1 .2 1.94l-.1 4.22-.1 3.88.1 2.52a11 11 0 0 0 .4 2.2H556l-.75-2.52H555a6.07 6.07 0 0 1-.81 1 5.53 5.53 0 0 1-1.17.86 6.76 6.76 0 0 1-1.59.63 7.5 7.5 0 0 1-2.05.26 6.2 6.2 0 0 1-2.14-.36 5.08 5.08 0 0 1-1.71-1 4.86 4.86 0 0 1-1.14-1.6 5.32 5.32 0 0 1-.41-2.13 5 5 0 0 1 .65-2.64 4.65 4.65 0 0 1 1.82-1.69 9 9 0 0 1 2.8-.9 22.42 22.42 0 0 1 3.62-.27h1a6.59 6.59 0 0 1 1 .07l.1-2a3.85 3.85 0 0 0-.79-2.77 4.05 4.05 0 0 0-2.88-.79 10.46 10.46 0 0 0-1.32.09l-1.44.26a11.44 11.44 0 0 0-1.4.41 7.08 7.08 0 0 0-1.17.54zm5.1 14.44a5.58 5.58 0 0 0 1.8-.27 5 5 0 0 0 1.37-.69 4.17 4.17 0 0 0 1-.92 3.77 3.77 0 0 0 .56-1v-3l-1-.05h-1a17.37 17.37 0 0 0-2.18.13 6.65 6.65 0 0 0-1.87.47 3.32 3.32 0 0 0-1.3.93 2.33 2.33 0 0 0-.48 1.5 2.66 2.66 0 0 0 .9 2.07 3.31 3.31 0 0 0 2.2.83zm24.48-13.25h-5.6v15.48h-2.88v-15.48h-5.62v-2.52h14.1zm2.85-8a2 2 0 0 1 .55-1.43 1.89 1.89 0 0 1 1.42-.59 2.07 2.07 0 0 1 1.48.59 1.91 1.91 0 0 1 .61 1.43 1.72 1.72 0 0 1-.61 1.36 2.16 2.16 0 0 1-1.48.54 2 2 0 0 1-1.42-.54 1.81 1.81 0 0 1-.55-1.36zm.6 5.47H581v18h-2.88zm-257.86 11.66l1 3.46h.18l.8-3.5 3.5-11.63h2.88l-5.33 16.16-1.2 3.42a18.9 18.9 0 0 1-1.31 2.95 7.31 7.31 0 0 1-1.62 2.07 3.1 3.1 0 0 1-2.09.78 5.35 5.35 0 0 1-2.12-.36l.5-2.5a2.49 2.49 0 0 0 .9.18 2.65 2.65 0 0 0 1.95-1.06 8.62 8.62 0 0 0 1.54-3.65l-7.23-18h3.3z"/></g></svg>